<?xml version="1.0" encoding="UTF-8" standalone="no"?>
<svg
   xml:space="preserve"
   width="674.17133"
   height="644.3548"
   style="clip-rule:evenodd;fill-rule:evenodd;image-rendering:optimizeQuality;shape-rendering:geometricPrecision;text-rendering:geometricPrecision"
   version="1.1"
   id="svg6307"
   sodipodi:docname="star.svg"
   inkscape:version="1.2.2 (b0a84865, 2022-12-01)"
   xmlns:inkscape="http://www.inkscape.org/namespaces/inkscape"
   xmlns:sodipodi="http://sodipodi.sourceforge.net/DTD/sodipodi-0.dtd"
   xmlns="http://www.w3.org/2000/svg"
   xmlns:svg="http://www.w3.org/2000/svg"><defs
   id="defs6311" /><sodipodi:namedview
   id="namedview6309"
   pagecolor="#ffffff"
   bordercolor="#000000"
   borderopacity="0.25"
   inkscape:showpageshadow="2"
   inkscape:pageopacity="0.0"
   inkscape:pagecheckerboard="0"
   inkscape:deskcolor="#d1d1d1"
   showgrid="false"
   inkscape:zoom="0.11523438"
   inkscape:cx="538.0339"
   inkscape:cy="1024"
   inkscape:window-width="1309"
   inkscape:window-height="456"
   inkscape:window-x="60"
   inkscape:window-y="112"
   inkscape:window-maximized="0"
   inkscape:current-layer="svg6307" />
    <path
   d="m 366.55978,19.046086 89.596,179.944994 189.466,22.682 -3.79,32.085 3.844,-32.108 c 17.734,2.122 30.386,18.219 28.263,35.95 -1.011,8.456 -5.2,15.755 -11.23,20.849 l -142.589,139.973 37,187.33 0.034,-0.006 c 3.46,17.519 -7.939,34.53 -25.458,37.99 a 32.22,32.22 0 0 1 -22.23,-3.604 l -178.406,-92.993 -166.61,93.015 0.054,0.093 c -15.595,8.706 -35.293,3.12 -43.999,-12.473 a 32.21,32.21 0 0 1 -3.25,-23.139 l 33.15,-197.449 -140.000992,-129.767 -0.049,0.055 c -13.0979999,-12.14 -13.8739999,-32.602 -1.735,-45.7 a 32.212,32.212 0 0 1 20.491,-10.191 l 198.545992,-29.566 80.125,-173.189994 29.305,13.517 -29.348,-13.578 c 7.497,-16.2080003 26.717,-23.2680003 42.926,-15.7700003 a 32.209,32.209 0 0 1 15.897,16.0500003 z"
   style="fill:#5a4631;fill-opacity:1;fill-rule:nonzero"
   id="path6305" />
</svg>
